<svg width="29" height="26" viewBox="0 0 29 26" fill="none" xmlns="http://www.w3.org/2000/svg">
<path d="M15.5 2H5.85714C5.34565 2 4.85511 2.18061 4.49343 2.5021C4.13177 2.82359 3.92857 3.25962 3.92857 3.71429V19.1429L2 24.2857L9.71429 22.5714H25.1429C25.6543 22.5714 26.1449 22.3907 26.5066 22.0693C26.8682 21.7479 27.0714 21.3118 27.0714 20.8571V12.2857" stroke="#E0544F" stroke-width="3" stroke-linecap="round" stroke-linejoin="round"/>
<path d="M17.1646 15.0918L11.3789 16.0175L12.3432 10.8061L21.4654 2.73181C21.6446 2.57114 21.8579 2.4436 22.093 2.35657C22.3279 2.26954 22.5799 2.22473 22.8347 2.22473C23.0893 2.22473 23.3413 2.26954 23.5762 2.35657C23.8113 2.4436 24.0246 2.57114 24.204 2.73181L26.2483 4.54895C26.429 4.70831 26.5725 4.89793 26.6704 5.10683C26.7682 5.31572 26.8187 5.53979 26.8187 5.7661C26.8187 5.9924 26.7682 6.21647 26.6704 6.42538C26.5725 6.63428 26.429 6.82388 26.2483 6.98324L17.1646 15.0918Z" stroke="#E0544F" stroke-width="3" stroke-linecap="round" stroke-linejoin="round"/>
</svg>
